# xmcd
# 
# Track frame offsets:
#     150
#     19380
#     30825
#     54195
#     70612
#     86250
#     110835
#     126300
#     141332
#     158125
# 
# Disc length: 2284
# 
# Revision: 0
# Processed by: cddbd v1.5.2PL0 Copyright (c) Steve Scherf et al.
# Submitted via: fre:ac v1.0.17
# 
DISCID=7d08ea0a
DTITLE=Hot Tuna - The Phosphorescent Rat
DYEAR=1973
DGENRE=Rock
TTITLE0=I See The Light
TTITLE1=Letter To The North Star
TTITLE2=Easy Now
TTITLE3=Corners Without Exits
TTITLE4=Day To Day Out The Window Blues
TTITLE5=In The Kingdom
TTITLE6=Seeweed Strut
TTITLE7=Living Just For You
TTITLE8=Soliloquy For 2
TTITLE9=Sally, Where'd You Get Your Liquor From?
EXTD=YEAR: 1973
EXTT0=
EXTT1=
EXTT2=
EXTT3=
EXTT4=
EXTT5=
EXTT6=
EXTT7=
EXTT8=
EXTT9=
PLAYORDER=
